<?xml version="1.0" encoding="utf-8"?>
<!-- Generator: Adobe Illustrator 27.8.1, SVG Export Plug-In . SVG Version: 6.00 Build 0)  -->
<svg version="1.1" xmlns="http://www.w3.org/2000/svg" xmlns:xlink="http://www.w3.org/1999/xlink" x="0px" y="0px"
	 viewBox="0 0 1539.7 464.1" style="enable-background:new 0 0 1539.7 464.1;" xml:space="preserve">
<style type="text/css">
	.st0{fill:#AE094E;}
	.st1{fill:#FFFFFF;}
	.st2{enable-background:new    ;}
</style>
<g id="Layer_3">
</g>
<g id="Layer_2_00000013164913851013418640000015774622287494782356_">
	<g id="Group_3619">
		<g id="Group_1">
			<path id="Path_1" d="M424.9,360.6c-4.1,5.7-8.3,11.3-12.6,16.8c-4.3,5.5-8.9,10.7-13.8,15.6c-14,14.7-30.1,27.3-47.8,37.3
				c-8.6,5.3-17.6,10-26.9,14.1c-9.5,4.1-19.4,7.6-29.4,10.4c-20.3,5.6-41.3,8.5-62.4,8.6c-30.9,0.2-61.6-6.1-90-18.4
				C86.4,421.3,42.1,377,18.4,321.4c-24.5-57.5-24.5-122.5,0-180C30.4,114,47.2,88.9,68,67.4c21.6-20.8,46.6-37.6,74.1-49.6
				c28.4-12.3,59-18.6,90-18.4c21.1,0,42.1,2.9,62.4,8.6c19.7,5.4,38.7,13.5,56.3,23.9c8.9,5.2,17.4,11.1,25.4,17.5
				c7.8,6.2,15.3,12.8,22.3,19.9c9.7,10,18.5,20.9,26.3,32.4c2.8,4.5,3.5,8.9,1.8,13.2c-1.6,4.3-4.9,7.4-9.8,9.5l-45.3,18.4
				c-4.7,2.1-10,2.4-15,0.9c-5.2-1.2-9.8-4.1-13.2-8.3c-2-2-4.1-4.2-6.1-6.4c-2-2.2-4.1-4.4-6.1-6.4c-4.3-4.4-8.9-8.4-13.8-12.2
				c-4.8-3.7-9.8-7.2-15-10.4c-5.3-3.2-10.8-6.1-16.5-8.6c-5.7-2.5-11.4-4.7-17.1-6.7C256.8,80.8,244.5,79,232,79
				c-19.8,0-39.4,4.1-57.5,12.2c-17.4,8.1-33,19.6-45.9,33.7c-13,14.2-23.6,30.6-31.2,48.4c-7.8,18.4-11.7,38.2-11.6,58.2
				c-0.2,20,3.8,39.8,11.6,58.2c7.6,17.8,18.2,34.1,31.2,48.4c12.7,14.3,28.3,25.6,45.9,33.1c17.5,8.6,36.7,12.9,57.5,12.9
				c12.5,0,24.8-1.8,36.7-5.5c5.7-2,11.4-4.3,17.1-6.7c5.7-2.5,11.2-5.3,16.5-8.6c5.2-3.2,10.3-6.8,15-10.7
				c4.7-3.9,9.3-8.1,13.8-12.6c2-2,4.1-4.2,6.1-6.4c2-2.2,4.1-4.4,6.1-6.4c3.4-4.2,8-7.2,13.2-8.6c5.5-1.6,10.5-1.4,15,0.6
				l45.3,18.4c4.9,2,8.2,5.3,9.8,9.8C428.3,351.6,427.7,356.1,424.9,360.6L424.9,360.6z M129,161.6c2.2-3.1,4.5-6.1,6.8-9.1
				c2.3-3,4.8-5.8,7.4-8.4c11.7-11.6,25.3-21.1,40.4-27.8c5.2-2.2,10.5-4.1,15.9-5.6c11-3.1,22.4-4.6,33.8-4.6
				c16.7-0.1,33.3,3.3,48.7,9.9c30.1,12.9,54,36.8,66.9,66.9c13.2,31.1,13.2,66.2,0,97.3c-6.5,14.8-15.6,28.4-26.8,40.1
				c-11.7,11.2-25.2,20.3-40.1,26.8c-15.4,6.7-31.9,10-48.7,9.9c-11.4,0-22.8-1.6-33.8-4.6c-10.7-2.9-20.9-7.3-30.5-12.9
				c-4.8-2.8-9.4-6-13.7-9.4c-4.2-3.4-8.3-6.9-12.1-10.8c-5.3-5.4-10-11.3-14.2-17.5c-1.5-2.1-1.9-4.7-1-7.1c1-2.4,2.9-4.3,5.3-5.1
				l24.5-9.9c2.6-1.1,5.4-1.3,8.1-0.5c2.8,0.7,5.3,2.2,7.1,4.5c1.1,1.1,2.2,2.3,3.3,3.5s2.2,2.4,3.3,3.5c2.3,2.4,4.8,4.6,7.4,6.6
				c2.6,2,5.3,3.9,8.1,5.6c2.9,1.8,5.9,3.3,8.9,4.6c3.1,1.3,6.2,2.5,9.3,3.6c6.4,2,13.1,3,19.9,3c10.7,0,21.3-2.2,31.1-6.6
				c9.4-4.4,17.8-10.6,24.8-18.2c7.1-7.7,12.8-16.5,16.9-26.1c4.2-10,6.3-20.7,6.3-31.5c0.1-10.8-2.1-21.5-6.3-31.4
				c-4.1-9.6-9.8-18.4-16.9-26.1c-14.5-15.6-34.7-24.5-55.9-24.8c-6.7,0-13.4,1-19.9,3c-3.1,1.1-6.2,2.3-9.3,3.6
				c-3.1,1.3-6.1,2.9-8.9,4.6c-2.8,1.7-5.5,3.7-8.1,5.8c-2.5,2.1-5,4.4-7.4,6.8c-1.1,1.1-2.2,2.3-3.3,3.5c-1.1,1.2-2.2,2.4-3.3,3.5
				c-1.8,2.2-4.3,3.9-7.1,4.6c-2.7,0.9-5.5,0.8-8.1-0.3l-24.5-9.9c-2.5-0.9-4.4-2.8-5.3-5.3C127.1,166.4,127.5,163.7,129,161.6
				L129,161.6z M282.2,263.5c-1,1.4-2.1,2.8-3.1,4.2c-1.1,1.4-2.2,2.7-3.4,3.9c-5.4,5.3-11.6,9.7-18.5,12.8c-2.4,1-4.8,1.9-7.3,2.6
				c-5,1.4-10.3,2.1-15.5,2.1c-7.7,0-15.3-1.5-22.3-4.6c-13.8-5.9-24.8-16.9-30.7-30.7c-6.1-14.3-6.1-30.4,0-44.7
				c5.8-13.9,16.8-24.9,30.7-30.7c7.1-3.1,14.7-4.6,22.3-4.6c5.2,0,10.5,0.7,15.5,2.1c4.9,1.4,9.6,3.3,14,5.9
				c2.2,1.3,4.3,2.7,6.3,4.3c1.9,1.5,3.8,3.2,5.5,4.9c2.4,2.5,4.6,5.2,6.5,8.1c0.7,0.9,0.9,2.2,0.5,3.3c-0.4,1.1-1.3,2-2.4,2.4
				l-11.2,4.6c-1.2,0.5-2.5,0.6-3.7,0.2c-1.3-0.3-2.4-1-3.3-2.1c-0.5-0.5-1-1-1.5-1.6s-1-1.1-1.5-1.6c-1.1-1.1-2.2-2.1-3.4-3
				c-1.2-0.9-2.4-1.8-3.7-2.6c-1.3-0.8-2.7-1.5-4.1-2.1c-1.4-0.6-2.8-1.2-4.3-1.7c-3-0.9-6-1.4-9.1-1.4c-4.9,0-9.8,1-14.3,3
				c-4.3,2-8.2,4.9-11.4,8.4c-3.2,3.5-5.9,7.6-7.8,12c-1.9,4.6-2.9,9.5-2.9,14.4c0,5,0.9,9.9,2.9,14.4c1.9,4.4,4.5,8.5,7.8,12
				c6.6,7.2,15.9,11.3,25.7,11.4c3.1,0,6.2-0.5,9.1-1.4c1.4-0.5,2.8-1.1,4.3-1.7c1.4-0.6,2.8-1.3,4.1-2.1c1.3-0.8,2.5-1.7,3.7-2.7
				c1.2-1,2.3-2,3.4-3.1c0.5-0.5,1-1,1.5-1.6s1-1.1,1.5-1.6c0.8-1,2-1.8,3.3-2.1c1.2-0.4,2.5-0.4,3.7,0.2l11.2,4.6
				c1.1,0.4,2,1.3,2.4,2.4C283,261.3,282.9,262.5,282.2,263.5z M233.6,212.9c-10.2,0-18.6,8.3-18.6,18.6c0,10.2,8.3,18.6,18.6,18.6
				c10.2,0,18.6-8.3,18.6-18.6v0C252.2,221.2,243.9,212.9,233.6,212.9z"/>
		</g>
		<g id="Group_1-2">
			<path id="Path_1-2" class="st0" d="M424.9,360.6c-4.1,5.7-8.3,11.3-12.6,16.8c-4.3,5.5-8.9,10.7-13.8,15.6
				c-14,14.7-30.1,27.3-47.8,37.3c-8.6,5.3-17.6,10-26.9,14.1c-9.5,4.1-19.4,7.6-29.4,10.4c-20.3,5.6-41.3,8.5-62.4,8.6
				c-30.9,0.2-61.6-6.1-90-18.4C86.4,421.3,42.1,377,18.4,321.4c-24.5-57.5-24.5-122.5,0-180C30.4,114,47.2,88.9,68,67.4
				c21.6-20.8,46.6-37.6,74.1-49.6c28.4-12.3,59-18.6,90-18.4c21.1,0,42.1,2.9,62.4,8.6c19.7,5.4,38.7,13.5,56.3,23.9
				c8.9,5.2,17.4,11.1,25.4,17.5c7.8,6.2,15.3,12.8,22.3,19.9c9.7,10,18.5,20.9,26.3,32.4c2.8,4.5,3.5,8.9,1.8,13.2
				c-1.6,4.3-4.9,7.4-9.8,9.5l-45.3,18.4c-4.7,2.1-10,2.4-15,0.9c-5.2-1.2-9.8-4.1-13.2-8.3c-2-2-4.1-4.2-6.1-6.4
				c-2-2.2-4.1-4.4-6.1-6.4c-4.3-4.4-8.9-8.4-13.8-12.2c-4.8-3.7-9.8-7.2-15-10.4c-5.3-3.2-10.8-6.1-16.5-8.6
				c-5.7-2.5-11.4-4.7-17.1-6.7C256.8,80.8,244.5,79,232,79c-19.8,0-39.4,4.1-57.5,12.2c-17.4,8.1-33,19.6-45.9,33.7
				c-13,14.2-23.6,30.6-31.2,48.4c-7.8,18.4-11.7,38.2-11.6,58.2c-0.2,20,3.8,39.8,11.6,58.2c7.6,17.8,18.2,34.1,31.2,48.4
				c12.7,14.3,28.3,25.6,45.9,33.1c17.5,8.6,36.7,12.9,57.5,12.9c12.5,0,24.8-1.8,36.7-5.5c5.7-2,11.4-4.3,17.1-6.7
				c5.7-2.5,11.2-5.3,16.5-8.6c5.2-3.2,10.3-6.8,15-10.7c4.7-3.9,9.3-8.1,13.8-12.6c2-2,4.1-4.2,6.1-6.4c2-2.2,4.1-4.4,6.1-6.4
				c3.4-4.2,8-7.2,13.2-8.6c5.5-1.6,10.5-1.4,15,0.6l45.3,18.4c4.9,2,8.2,5.3,9.8,9.8C428.3,351.6,427.7,356.1,424.9,360.6
				L424.9,360.6z M129,161.6c2.2-3.1,4.5-6.1,6.8-9.1c2.3-3,4.8-5.8,7.4-8.4c11.7-11.6,25.3-21.1,40.4-27.8
				c5.2-2.2,10.5-4.1,15.9-5.6c11-3.1,22.4-4.6,33.8-4.6c16.7-0.1,33.3,3.3,48.7,9.9c30.1,12.9,54,36.8,66.9,66.9
				c13.2,31.1,13.2,66.2,0,97.3c-6.5,14.8-15.6,28.4-26.8,40.1c-11.7,11.2-25.2,20.3-40.1,26.8c-15.4,6.7-31.9,10-48.7,9.9
				c-11.4,0-22.8-1.6-33.8-4.6c-10.7-2.9-20.9-7.3-30.5-12.9c-4.8-2.8-9.4-6-13.7-9.4c-4.2-3.4-8.3-6.9-12.1-10.8
				c-5.3-5.4-10-11.3-14.2-17.5c-1.5-2.1-1.9-4.7-1-7.1c1-2.4,2.9-4.3,5.3-5.1l24.5-9.9c2.6-1.1,5.4-1.3,8.1-0.5
				c2.8,0.7,5.3,2.2,7.1,4.5c1.1,1.1,2.2,2.3,3.3,3.5s2.2,2.4,3.3,3.5c2.3,2.4,4.8,4.6,7.4,6.6c2.6,2,5.3,3.9,8.1,5.6
				c2.9,1.8,5.9,3.3,8.9,4.6c3.1,1.3,6.2,2.5,9.3,3.6c6.4,2,13.1,3,19.9,3c10.7,0,21.3-2.2,31.1-6.6c9.4-4.4,17.8-10.6,24.8-18.2
				c7.1-7.7,12.8-16.5,16.9-26.1c4.2-10,6.3-20.7,6.3-31.5c0.1-10.8-2.1-21.5-6.3-31.4c-4.1-9.6-9.8-18.4-16.9-26.1
				c-14.5-15.6-34.7-24.5-55.9-24.8c-6.7,0-13.4,1-19.9,3c-3.1,1.1-6.2,2.3-9.3,3.6c-3.1,1.3-6.1,2.9-8.9,4.6
				c-2.8,1.7-5.5,3.7-8.1,5.8c-2.5,2.1-5,4.4-7.4,6.8c-1.1,1.1-2.2,2.3-3.3,3.5c-1.1,1.2-2.2,2.4-3.3,3.5c-1.8,2.2-4.3,3.9-7.1,4.6
				c-2.7,0.9-5.5,0.8-8.1-0.3l-24.5-9.9c-2.5-0.9-4.4-2.8-5.3-5.3C127.1,166.4,127.5,163.7,129,161.6L129,161.6z M282.2,263.5
				c-1,1.4-2.1,2.8-3.1,4.2c-1.1,1.4-2.2,2.7-3.4,3.9c-5.4,5.3-11.6,9.7-18.5,12.8c-2.4,1-4.8,1.9-7.3,2.6c-5,1.4-10.3,2.1-15.5,2.1
				c-7.7,0-15.3-1.5-22.3-4.6c-13.8-5.9-24.8-16.9-30.7-30.7c-6.1-14.3-6.1-30.4,0-44.7c5.8-13.9,16.8-24.9,30.7-30.7
				c7.1-3.1,14.7-4.6,22.3-4.6c5.2,0,10.5,0.7,15.5,2.1c4.9,1.4,9.6,3.3,14,5.9c2.2,1.3,4.3,2.7,6.3,4.3c1.9,1.5,3.8,3.2,5.5,4.9
				c2.4,2.5,4.6,5.2,6.5,8.1c0.7,0.9,0.9,2.2,0.5,3.3c-0.4,1.1-1.3,2-2.4,2.4l-11.2,4.6c-1.2,0.5-2.5,0.6-3.7,0.2
				c-1.3-0.3-2.4-1-3.3-2.1c-0.5-0.5-1-1-1.5-1.6s-1-1.1-1.5-1.6c-1.1-1.1-2.2-2.1-3.4-3c-1.2-0.9-2.4-1.8-3.7-2.6
				c-1.3-0.8-2.7-1.5-4.1-2.1c-1.4-0.6-2.8-1.2-4.3-1.7c-3-0.9-6-1.4-9.1-1.4c-4.9,0-9.8,1-14.3,3c-4.3,2-8.2,4.9-11.4,8.4
				c-3.2,3.5-5.9,7.6-7.8,12c-1.9,4.6-2.9,9.5-2.9,14.4c0,5,0.9,9.9,2.9,14.4c1.9,4.4,4.5,8.5,7.8,12c6.6,7.2,15.9,11.3,25.7,11.4
				c3.1,0,6.2-0.5,9.1-1.4c1.4-0.5,2.8-1.1,4.3-1.7c1.4-0.6,2.8-1.3,4.1-2.1c1.3-0.8,2.5-1.7,3.7-2.7c1.2-1,2.3-2,3.4-3.1
				c0.5-0.5,1-1,1.5-1.6s1-1.1,1.5-1.6c0.8-1,2-1.8,3.3-2.1c1.2-0.4,2.5-0.4,3.7,0.2l11.2,4.6c1.1,0.4,2,1.3,2.4,2.4
				C283,261.3,282.9,262.5,282.2,263.5z M233.6,212.9c-10.2,0-18.6,8.3-18.6,18.6c0,10.2,8.3,18.6,18.6,18.6
				c10.2,0,18.6-8.3,18.6-18.6v0C252.2,221.2,243.9,212.9,233.6,212.9z"/>
		</g>
	</g>
	<g>
		<path id="Path_2" class="st1" d="M676.2,223.7c-1.5,2.1-3,4.1-4.6,6.1c-1.6,2-3.2,3.9-5,5.7c-7.9,7.9-17.1,14.2-27.3,18.8
			c-3.5,1.5-7.1,2.8-10.7,3.8c-7.4,2.1-15.1,3.1-22.8,3.1c-11.3,0.1-22.5-2.2-32.8-6.7c-20.3-8.7-36.5-24.8-45.1-45.1
			c-8.9-21-8.9-44.7,0-65.7c4.4-10,10.5-19.2,18.1-27c7.9-7.6,17-13.7,27-18.1c10.4-4.5,21.5-6.8,32.8-6.7c7.7,0,15.4,1.1,22.8,3.1
			c7.2,2,14.1,4.9,20.6,8.7c3.2,1.9,6.3,4,9.3,6.4c2.9,2.3,5.6,4.7,8.2,7.3c3.5,3.7,6.8,7.6,9.6,11.8c1,1.4,1.3,3.2,0.7,4.8
			c-0.6,1.6-1.9,2.9-3.6,3.5l-16.5,6.7c-1.7,0.8-3.7,0.9-5.5,0.3c-1.9-0.4-3.6-1.5-4.8-3c-0.7-0.7-1.5-1.5-2.2-2.3s-1.5-1.6-2.2-2.3
			c-1.6-1.6-3.3-3.1-5-4.5c-1.8-1.4-3.6-2.6-5.5-3.8c-1.9-1.2-3.9-2.2-6-3.1c-2.1-0.9-4.2-1.7-6.3-2.5c-4.3-1.3-8.9-2-13.4-2
			c-7.2,0-14.4,1.5-21,4.5c-6.3,3-12,7.1-16.8,12.3c-4.8,5.2-8.6,11.2-11.4,17.6c-2.8,6.7-4.3,13.9-4.2,21.2
			c-0.1,7.3,1.4,14.5,4.2,21.2c2.8,6.5,6.6,12.4,11.4,17.6c9.8,10.5,23.4,16.6,37.8,16.8c4.5,0,9.1-0.7,13.4-2
			c2.1-0.7,4.2-1.6,6.3-2.5c2.1-0.9,4.1-1.9,6-3.1c1.9-1.2,3.7-2.5,5.5-3.9c1.7-1.4,3.4-2.9,5-4.6c0.7-0.7,1.5-1.5,2.2-2.3
			c0.7-0.8,1.5-1.6,2.2-2.3c1.2-1.5,2.9-2.6,4.8-3.1c1.8-0.6,3.7-0.5,5.5,0.2l16.5,6.7c1.7,0.6,3,1.9,3.6,3.6
			C677.4,220.4,677.2,222.2,676.2,223.7L676.2,223.7z M780.3,261.2c-11.3,0.1-22.5-2.2-32.8-6.7c-20.3-8.7-36.5-24.8-45.1-45.1
			c-8.9-21.1-8.9-44.9,0-66c8.6-20.4,24.8-36.6,45.1-45.2c21.1-8.9,44.8-8.9,65.9,0c20.3,8.7,36.5,24.9,45.1,45.2
			c8.9,21.1,8.9,44.9,0,66c-8.7,20.3-24.8,36.5-45.1,45.1C802.9,259,791.6,261.3,780.3,261.2z M780.4,120.7
			c-7.2,0-14.3,1.5-20.8,4.6c-6.4,3-12.1,7.1-16.9,12.2c-4.9,5.2-8.8,11.2-11.5,17.8c-5.6,13.5-5.6,28.8,0,42.3
			c2.7,6.6,6.6,12.6,11.5,17.8c4.8,5.1,10.6,9.3,16.9,12.3c13.2,6.1,28.5,6.1,41.7,0c6.4-3,12.1-7.2,16.9-12.3
			c4.9-5.2,8.7-11.2,11.5-17.8c5.7-13.5,5.7-28.8,0-42.3c-2.7-6.6-6.6-12.6-11.5-17.8c-4.8-5.1-10.6-9.2-16.9-12.2
			C794.7,122.2,787.6,120.6,780.4,120.7L780.4,120.7z M899.6,258.1c-1.8,0.1-3.6-0.7-4.8-2c-1.3-1.3-1.9-3.1-1.9-4.9V101.5
			c0-1.8,0.6-3.6,1.9-4.9c1.2-1.3,3-2.1,4.8-2h57.6c23.4,0,42.6,6.9,57.6,20.6c7.9,7.3,14.1,16.3,18.1,26.4
			c4.2,11.1,6.3,23,6.2,34.9c0,6.2-0.5,12.3-1.6,18.4c-1,5.6-2.6,11.1-4.7,16.4c-3.8,10.2-10,19.3-18.1,26.6
			c-7.4,6.8-16.2,11.9-25.7,15.2c-10.3,3.5-21.1,5.2-32,5.1L899.6,258.1L899.6,258.1z M930.9,230.4h26.6c5.9,0,11.9-0.7,17.7-2
			c5.9-1.4,11.4-4.1,16.1-8c4.8-3.7,8.8-9.2,12.1-16.3c3.1-6.8,4.7-16,4.7-27.5c0-11.3-1.6-20.6-4.7-27.7
			c-3.3-7.2-7.3-12.6-12.1-16.3c-4.8-3.8-10.3-6.5-16.3-7.8c-5.7-1.3-11.6-2-17.4-2h-26.6c-1.8-0.1-3.6,0.7-4.8,2
			c-1.3,1.3-1.9,3.1-1.9,4.9v93.8c0,1.8,0.6,3.6,1.9,4.9C927.3,229.7,929,230.4,930.9,230.4L930.9,230.4z M1095.1,258.1h-17.7
			c-1.8,0.1-3.6-0.7-4.8-2c-1.3-1.3-1.9-3.1-1.9-4.9V101.7c0-1.8,0.6-3.6,1.9-4.9c1.2-1.3,3-2.1,4.8-2h17.7c3.8,0,6.9,3,6.9,6.8
			c0,0,0,0.1,0,0.1v149.5c0,3.8-3,6.9-6.8,6.9C1095.2,258.1,1095.1,258.1,1095.1,258.1L1095.1,258.1L1095.1,258.1z M1139.5,231.1
			l9.4-13.9c0.9-1.5,2.5-2.6,4.2-2.9c1.8-0.3,3.6,0.1,5.1,1.1c6.3,4,12.9,7.6,19.7,10.7c8.6,4.2,18,6.3,27.5,6.3
			c4.5,0.1,9.1-0.6,13.4-2c3.5-1,6.9-2.7,9.8-4.9c2.5-1.9,4.5-4.2,6-6.9c1.3-2.3,2-4.9,2-7.6c0-3.1-1.1-6.1-3.1-8.5
			c-2.3-2.3-5-4.2-8-5.6c-1.7-0.8-3.5-1.5-5.4-2c-1.9-0.6-4.1-1.2-6.5-1.8c-2.2-0.6-4.5-1.1-6.8-1.6s-4.7-0.9-7.3-1.3
			c-1.6-0.3-3.4-0.6-5.4-1c-1.9-0.4-3.9-0.8-6-1.2c-4.6-0.7-9.1-1.8-13.4-3.3c-4.7-1.3-9.3-3.2-13.6-5.6c-4.5-2.2-8.5-5.2-12.1-8.7
			c-3.7-3.5-6.7-7.8-8.7-12.5c-2.2-5.4-3.2-11.2-3.1-17c0-9.4,1.9-17.4,5.8-23.9c3.7-6.1,8.7-11.2,14.7-15c6.3-3.6,13-6.2,20.1-7.6
			c7.1-1.5,14.2-2.2,21.4-2.2c6.1-0.1,12.3,0.4,18.3,1.3c2.6,0.4,5.2,1,7.7,1.7c2.5,0.7,4.9,1.4,7.3,2.1c2.4,0.9,4.7,1.9,6.9,3
			c2.2,1.1,4.4,2.3,6.5,3.5c1.5,0.9,2.9,1.8,4.2,2.7c1.3,0.9,2.8,1.8,4.5,2.7c1.5,1,2.6,2.6,2.9,4.5c0.3,1.8-0.2,3.7-1.3,5.1
			l-9.4,13.4c-1.1,1.6-2.7,2.6-4.6,2.9c-1.8,0.3-3.7-0.1-5.2-1.1c-5.2-3.4-10.7-6.3-16.5-8.5c-7.2-2.9-14.8-4.3-22.6-4.2
			c-1.3,0-2.8,0.1-4.4,0.2s-3.2,0.4-4.8,0.7c-3.4,0.7-6.7,1.9-9.8,3.4c-1.4,0.7-2.8,1.5-4.1,2.5c-1.3,0.9-2.4,2-3.5,3.1
			c-1.9,2.4-3,5.4-2.9,8.5c-0.1,3.1,1.2,6.2,3.6,8.3c2.7,2.4,5.8,4.3,9.2,5.6c1.9,0.7,3.9,1.4,5.9,2c2,0.6,4.1,1.2,6.4,1.8
			s4.4,1.1,6.6,1.6s4.3,1,6.4,1.6c1.6,0.3,3.4,0.7,5.1,1.1c1.9,0.5,3.9,0.8,5.8,1.1c2.1,0.3,4.2,0.7,6.5,1.2s4.5,1.2,6.7,1.9
			c1.2,0.3,2.4,0.7,3.7,1.1s2.5,0.9,3.7,1.3c1.8,0.7,3.8,1.7,6.1,2.9c2.1,1,4,2.2,5.9,3.6c1.1,0.7,2.2,1.5,3.2,2.3
			c1,0.8,1.9,1.7,2.8,2.6c3.7,3.7,6.6,8.1,8.5,13c2.2,5.2,3.3,11.5,3.4,18.8c0.1,7.6-1.4,15.2-4.5,22.1c-2.9,6.1-7.3,11.4-12.7,15.4
			c-5.9,4.4-12.5,7.6-19.7,9.4c-8.2,2.1-16.7,3.2-25.2,3.1c-7.6,0.1-15.1-0.6-22.6-2c-6.1-1-12-2.8-17.7-5.1c-2.7-1-5.3-2.2-7.8-3.5
			c-2.5-1.3-5-2.6-7.4-4.1c-1.5-0.9-3-1.8-4.5-2.8c-1.5-1-3.1-2.1-4.7-3.2c-1.6-0.9-2.6-2.5-2.9-4.2
			C1138.1,234.4,1138.5,232.6,1139.5,231.1L1139.5,231.1z M1390.9,122.2H1358c-3.8,0-6.9,3-6.9,6.8c0,0,0,0.1,0,0.1v122
			c0,3.8-3,6.9-6.8,6.9c0,0-0.1,0-0.1,0h-17.4c-3.8,0-6.9-3-6.9-6.8c0,0,0-0.1,0-0.1v-122c0-3.8-3-6.9-6.8-6.9c0,0-0.1,0-0.1,0
			h-33.1c-3.8,0-6.9-3-6.9-6.8c0,0,0-0.1,0-0.1v-13.9c0-3.8,3-6.9,6.8-6.9c0,0,0.1,0,0.1,0h111c3.8,0,6.9,3,6.9,6.8c0,0,0,0.1,0,0.1
			v13.9c0,3.8-3,6.9-6.8,6.9C1391,122.2,1390.9,122.2,1390.9,122.2L1390.9,122.2z M1450.5,129.2v27c0,3.8,3,6.9,6.8,6.9
			c0,0,0.1,0,0.1,0h65.2c3.8,0,6.9,3,6.9,6.8c0,0,0,0.1,0,0.1v14.5c0,3.8-3,6.9-6.8,6.9c0,0-0.1,0-0.1,0h-65.2c-3.8,0-6.9,3-6.9,6.8
			c0,0,0,0.1,0,0.1V223c0,3.8,3,6.9,6.8,6.9c0,0,0.1,0,0.1,0h75.3c3.8,0,6.9,3,6.9,6.8c0,0,0,0.1,0,0.1v14.3c0,3.8-3,6.9-6.8,6.9
			c0,0-0.1,0-0.1,0h-106.6c-3.8,0-6.9-3-6.9-6.8c0,0,0-0.1,0-0.1V101.5c0-3.8,3-6.9,6.8-6.9c0,0,0.1,0,0.1,0h106.6
			c3.8,0,6.9,3,6.9,6.8c0,0,0,0.1,0,0.1v13.9c0,3.8-3,6.9-6.8,6.9c0,0-0.1,0-0.1,0h-75.3c-3.8,0-6.9,3-6.9,6.8
			C1450.5,129.1,1450.5,129.1,1450.5,129.2C1450.5,129.2,1450.5,129.2,1450.5,129.2z"/>
		<g class="st2">
			<path class="st1" d="M521.9,303.5h11.1l10.5,22.3l10.4-22.3h10.9l-16.5,31.9v17h-9.8v-17L521.9,303.5z"/>
			<path class="st1" d="M588.6,353c-11.2,0-19.7-7.8-19.7-20c0-12.3,8.8-20,20-20s20,7.8,20,20C608.9,345.1,599.9,353,588.6,353z
				 M588.6,344.4c5.2,0,10.2-3.8,10.2-11.5c0-7.8-4.8-11.5-10-11.5s-9.9,3.7-9.9,11.5C578.9,340.6,583.4,344.4,588.6,344.4z"/>
			<path class="st1" d="M653.7,352.3h-9.9v-4.9c-2.5,3.3-6.7,5.4-11.6,5.4c-9,0-15.5-5.9-15.5-16.5v-22.8h9.8v21.4
				c0,6.2,3.4,9.6,8.6,9.6c5.3,0,8.7-3.4,8.7-9.6v-21.4h9.9V352.3z"/>
			<path class="st1" d="M674.1,352.3h-9.8v-38.8h9.8v6c2.5-4,6.5-6.6,11.9-6.6v10.3h-2.6c-5.8,0-9.3,2.2-9.3,9.7V352.3z"/>
			<path class="st1" d="M739.6,311.4H721v12.3h16.5v7.8H721v13h18.6v8h-28.4v-48.9h28.4V311.4z"/>
			<path class="st1" d="M803.7,330.9c0-6.2-3.4-9.4-8.6-9.4c-5.3,0-8.7,3.2-8.7,9.4v21.4h-9.8v-21.4c0-6.2-3.4-9.4-8.6-9.4
				c-5.3,0-8.8,3.2-8.8,9.4v21.4h-9.8v-38.8h9.8v4.7c2.5-3.2,6.6-5.2,11.4-5.2c6,0,11,2.6,13.7,7.4c2.5-4.4,7.6-7.4,13.3-7.4
				c9.3,0,15.9,5.9,15.9,16.6v22.8h-9.8V330.9z"/>
			<path class="st1" d="M840.7,353c-11.3,0-19.5-7.8-19.5-20c0-12.3,8-20,19.5-20c11.2,0,19.1,7.6,19.1,19.2c0,1.3-0.1,2.5-0.3,3.8
				h-28.4c0.5,5.7,4.4,9,9.3,9c4.2,0,6.5-2.1,7.8-4.7h10.6C856.7,347.3,850.3,353,840.7,353z M831.3,329.3h18.4
				c-0.1-5.1-4.2-8.3-9.2-8.3C835.7,321,832,324,831.3,329.3z"/>
			<path class="st1" d="M877.7,352.3h-9.8v-38.8h9.8v6c2.5-4,6.5-6.6,11.9-6.6v10.3H887c-5.8,0-9.3,2.2-9.3,9.7V352.3z"/>
			<path class="st1" d="M912.4,312.9c6.1,0,10.5,2.8,12.8,6.2v-5.5h9.9v39.1c0,10.5-6.4,18.8-19.2,18.8c-10.9,0-18.6-5.5-19.5-14.4
				h9.7c1,3.5,4.6,5.8,9.5,5.8c5.4,0,9.6-3.1,9.6-10.3v-6c-2.3,3.4-6.7,6.4-12.8,6.4c-9.9,0-17.7-8.1-17.7-20.2
				S902.5,312.9,912.4,312.9z M914.9,321.5c-5.2,0-10.2,3.9-10.2,11.3s5,11.6,10.2,11.6c5.4,0,10.3-4.1,10.3-11.4
				C925.2,325.6,920.3,321.5,914.9,321.5z"/>
			<path class="st1" d="M944.6,303.2c0-3.2,2.5-5.7,6-5.7c3.4,0,6,2.5,6,5.7c0,3.2-2.6,5.7-6,5.7
				C947.1,308.9,944.6,306.4,944.6,303.2z M945.6,313.6h9.8v38.8h-9.8V313.6z"/>
			<path class="st1" d="M993.2,330.9c0-6.2-3.4-9.6-8.6-9.6c-5.3,0-8.8,3.4-8.8,9.6v21.4h-9.8v-38.8h9.8v4.8
				c2.5-3.3,6.7-5.4,11.7-5.4c9,0,15.5,5.9,15.5,16.6v22.8h-9.8V330.9z"/>
			<path class="st1" d="M1028.5,312.9c6.1,0,10.5,2.8,12.8,6.2v-5.5h9.9v39.1c0,10.5-6.4,18.8-19.2,18.8c-10.9,0-18.6-5.5-19.5-14.4
				h9.7c1,3.5,4.6,5.8,9.5,5.8c5.4,0,9.6-3.1,9.6-10.3v-6c-2.3,3.4-6.7,6.4-12.8,6.4c-9.9,0-17.7-8.1-17.7-20.2
				S1018.6,312.9,1028.5,312.9z M1031,321.5c-5.2,0-10.2,3.9-10.2,11.3s5,11.6,10.2,11.6c5.4,0,10.3-4.1,10.3-11.4
				C1041.3,325.6,1036.4,321.5,1031,321.5z"/>
			<path class="st1" d="M1076.8,303.5h35.8v7.9h-13v41h-9.8v-41h-13V303.5z"/>
			<path class="st1" d="M1137.7,353c-11.3,0-19.5-7.8-19.5-20c0-12.3,8-20,19.5-20c11.2,0,19.1,7.6,19.1,19.2c0,1.3-0.1,2.5-0.3,3.8
				h-28.4c0.5,5.7,4.4,9,9.3,9c4.2,0,6.5-2.1,7.8-4.7h10.6C1153.7,347.3,1147.3,353,1137.7,353z M1128.3,329.3h18.4
				c-0.1-5.1-4.2-8.3-9.2-8.3C1132.7,321,1129,324,1128.3,329.3z"/>
			<path class="st1" d="M1181.6,312.9c9.7,0,16.2,5,18.3,13.7h-10.6c-1.1-3.3-3.7-5.4-7.8-5.4c-5.5,0-9.1,4.1-9.1,11.7
				c0,7.6,3.6,11.6,9.1,11.6c4.1,0,6.6-1.8,7.8-5.3h10.6c-2.1,8.3-8.6,13.7-18.3,13.7c-11.2,0-19.2-7.8-19.2-20
				C1162.4,320.8,1170.4,312.9,1181.6,312.9z"/>
			<path class="st1" d="M1208.1,300.5h9.8v17.9c2.5-3.3,6.9-5.4,12-5.4c8.8,0,15.1,5.9,15.1,16.6v22.8h-9.8v-21.4
				c0-6.2-3.4-9.6-8.6-9.6c-5.3,0-8.8,3.4-8.8,9.6v21.4h-9.8V300.5z"/>
			<path class="st1" d="M1290.9,333.6h-8.2v18.8h-9.8v-48.9h18c11.8,0,17.6,6.7,17.6,15.1C1308.6,326,1303.5,333.6,1290.9,333.6z
				 M1290.5,325.7c5.5,0,8-2.7,8-7.1c0-4.5-2.5-7.1-8-7.1h-7.8v14.2H1290.5z"/>
			<path class="st1" d="M1331.7,312.9c6.2,0,10.5,2.9,12.8,6.2v-5.5h9.9v38.8h-9.9v-5.7c-2.3,3.4-6.7,6.3-12.9,6.3
				c-9.8,0-17.6-8.1-17.6-20.2S1321.8,312.9,1331.7,312.9z M1334.2,321.5c-5.2,0-10.2,3.9-10.2,11.3s5,11.6,10.2,11.6
				c5.4,0,10.3-4.1,10.3-11.4C1344.5,325.6,1339.6,321.5,1334.2,321.5z"/>
			<path class="st1" d="M1374.7,352.3h-9.8v-38.8h9.8v6c2.5-4,6.5-6.6,11.9-6.6v10.3h-2.6c-5.8,0-9.3,2.2-9.3,9.7V352.3z"/>
			<path class="st1" d="M1395.7,321.6h-4.6v-8.1h4.6V304h9.9v9.6h8.7v8.1h-8.7v18.8c0,2.6,1,3.7,4.1,3.7h4.6v8.3h-6.2
				c-7.4,0-12.4-3.2-12.4-12V321.6z"/>
			<path class="st1" d="M1449.5,330.9c0-6.2-3.4-9.6-8.6-9.6c-5.3,0-8.8,3.4-8.8,9.6v21.4h-9.8v-38.8h9.8v4.8
				c2.5-3.3,6.7-5.4,11.7-5.4c9,0,15.5,5.9,15.5,16.6v22.8h-9.8V330.9z"/>
			<path class="st1" d="M1486.5,353c-11.3,0-19.5-7.8-19.5-20c0-12.3,8-20,19.5-20c11.2,0,19.1,7.6,19.1,19.2c0,1.3-0.1,2.5-0.3,3.8
				H1477c0.5,5.7,4.4,9,9.3,9c4.2,0,6.5-2.1,7.8-4.7h10.6C1502.5,347.3,1496.1,353,1486.5,353z M1477.1,329.3h18.4
				c-0.1-5.1-4.2-8.3-9.2-8.3C1481.5,321,1477.8,324,1477.1,329.3z"/>
			<path class="st1" d="M1523.5,352.3h-9.8v-38.8h9.8v6c2.5-4,6.5-6.6,11.9-6.6v10.3h-2.6c-5.8,0-9.3,2.2-9.3,9.7V352.3z"/>
		</g>
	</g>
</g>
</svg>
